<svg width="32" height="32" viewBox="0 0 32 32" fill="none" xmlns="http://www.w3.org/2000/svg">
<path d="M12 4H6.66667C5.19391 4 4 5.19391 4 6.66667V12C4 13.4728 5.19391 14.6667 6.66667 14.6667H12C13.4728 14.6667 14.6667 13.4728 14.6667 12V6.66667C14.6667 5.19391 13.4728 4 12 4Z" stroke="#06B6E3" stroke-width="2" stroke-linecap="round" stroke-linejoin="round"/>
<path d="M9.33325 14.6667V20.0001C9.33325 20.7073 9.6142 21.3856 10.1143 21.8857C10.6144 22.3858 11.2927 22.6667 11.9999 22.6667H17.3333" stroke="#06B6E3" stroke-width="2" stroke-linecap="round" stroke-linejoin="round"/>
<path d="M25.3333 17.3333H19.9999C18.5272 17.3333 17.3333 18.5272 17.3333 19.9999V25.3333C17.3333 26.806 18.5272 27.9999 19.9999 27.9999H25.3333C26.806 27.9999 27.9999 26.806 27.9999 25.3333V19.9999C27.9999 18.5272 26.806 17.3333 25.3333 17.3333Z" stroke="#06B6E3" stroke-width="2" stroke-linecap="round" stroke-linejoin="round"/>
</svg>
