<svg width="32" height="32" viewBox="0 0 32 32" fill="none" xmlns="http://www.w3.org/2000/svg">
<path d="M16 10.6667C22.6274 10.6667 28 8.87589 28 6.66675C28 4.45761 22.6274 2.66675 16 2.66675C9.37258 2.66675 4 4.45761 4 6.66675C4 8.87589 9.37258 10.6667 16 10.6667Z" stroke="#06B6E3" stroke-width="2" stroke-linecap="round" stroke-linejoin="round"/>
<path d="M4 6.66675V25.3334C4 26.3943 5.26428 27.4117 7.51472 28.1618C9.76516 28.912 12.8174 29.3334 16 29.3334C19.1826 29.3334 22.2348 28.912 24.4853 28.1618C26.7357 27.4117 28 26.3943 28 25.3334V6.66675" stroke="#06B6E3" stroke-width="2" stroke-linecap="round" stroke-linejoin="round"/>
<path d="M4 16C4 17.0609 5.26428 18.0783 7.51472 18.8284C9.76516 19.5786 12.8174 20 16 20C19.1826 20 22.2348 19.5786 24.4853 18.8284C26.7357 18.0783 28 17.0609 28 16" stroke="#06B6E3" stroke-width="2" stroke-linecap="round" stroke-linejoin="round"/>
</svg>
