<svg width="32" height="32" viewBox="0 0 32 32" fill="none" xmlns="http://www.w3.org/2000/svg">
<path d="M20.0002 2.66675H8.00016C7.29292 2.66675 6.61464 2.9477 6.11454 3.4478C5.61445 3.94789 5.3335 4.62617 5.3335 5.33341V26.6667C5.3335 27.374 5.61445 28.0523 6.11454 28.5524C6.61464 29.0525 7.29292 29.3334 8.00016 29.3334H24.0002C24.7074 29.3334 25.3857 29.0525 25.8858 28.5524C26.3859 28.0523 26.6668 27.374 26.6668 26.6667V9.33341L20.0002 2.66675Z" stroke="#06B6E3" stroke-width="2" stroke-linecap="round" stroke-linejoin="round"/>
<path d="M18.6665 2.66675V8.00008C18.6665 8.70733 18.9475 9.3856 19.4476 9.8857C19.9477 10.3858 20.6259 10.6667 21.3332 10.6667H26.6665" stroke="#06B6E3" stroke-width="2" stroke-linecap="round" stroke-linejoin="round"/>
<path d="M13.3332 12H10.6665" stroke="#06B6E3" stroke-width="2" stroke-linecap="round" stroke-linejoin="round"/>
<path d="M21.3332 17.3333H10.6665" stroke="#06B6E3" stroke-width="2" stroke-linecap="round" stroke-linejoin="round"/>
<path d="M21.3332 22.6667H10.6665" stroke="#06B6E3" stroke-width="2" stroke-linecap="round" stroke-linejoin="round"/>
</svg>
