<svg width="20" height="20" viewBox="0 0 20 20" fill="none" xmlns="http://www.w3.org/2000/svg">
<path d="M16.6668 8.33317C16.6668 12.494 12.051 16.8273 10.501 18.1657C10.3566 18.2742 10.1808 18.333 10.0002 18.333C9.8195 18.333 9.64373 18.2742 9.49933 18.1657C7.94933 16.8273 3.3335 12.494 3.3335 8.33317C3.3335 6.56506 4.03588 4.86937 5.28612 3.61913C6.53636 2.36888 8.23205 1.6665 10.0002 1.6665C11.7683 1.6665 13.464 2.36888 14.7142 3.61913C15.9645 4.86937 16.6668 6.56506 16.6668 8.33317Z" stroke="#08B3E5" stroke-width="1.66667" stroke-linecap="round" stroke-linejoin="round"/>
<path d="M10 10.8335C11.3807 10.8335 12.5 9.71421 12.5 8.3335C12.5 6.95278 11.3807 5.8335 10 5.8335C8.61929 5.8335 7.5 6.95278 7.5 8.3335C7.5 9.71421 8.61929 10.8335 10 10.8335Z" stroke="#08B3E5" stroke-width="1.66667" stroke-linecap="round" stroke-linejoin="round"/>
</svg>
